# xmcd
#
# Track frame offsets:
#	150
#	14972
#	31943
#	50950
#	67615
#	85572
#	102907
#	115362
#	132077
#	146100
#	164828
#	178623
#	191785
#	207258
#	223607
#	237502
#
# Disc length: 3368 seconds
#
# Revision: 1
# Processed by: cddbd v1.5.2PL0 Copyright (c) Steve Scherf et al.
# Submitted via: audiograbber 1.83.01
#
DISCID=f30d2610
DTITLE=Various Artist - CDX 589
DYEAR=2014
DGENRE=Country
TTITLE0=Jake Owen - Beachin'
TTITLE1=Lee Brice - I Don't Dance (Radio Edit
TTITLE2=Hunter Hayes - Invisible
TTITLE3=Jennifer Nettles - Me Without You
TTITLE4=Darius Rucker - Miss You
TTITLE5=Eric Paslay - Song About A Girl
TTITLE6=Gwen Sebastian - Annie's New Gun
TTITLE7=Branch And Dean - Glad She's Not An Angel
TTITLE8=Mary Sarah (Ft. Ray Price) - Heartaches By The Number
TTITLE9=Tracy Lawrence - Lie
TTITLE10=Clinton Gregoy (ft. Collin Raye) - Some Real Good People
TTITLE11=David Carter - Hey Bahama Mama
TTITLE12=Rachael Turner - Meet Me In The Middle
TTITLE13=Andy Ross - Rebel
TTITLE14=Darren Hincks - Rock And Roll Me One
TTITLE15=Steve Richard - South Of Heaven
EXTD=
EXTT0=
EXTT1=
EXTT2=
EXTT3=
EXTT4=
EXTT5=
EXTT6=
EXTT7=
EXTT8=
EXTT9=
EXTT10=
EXTT11=
EXTT12=
EXTT13=
EXTT14=
EXTT15=
PLAYORDER=
